<svg xmlns="http://www.w3.org/2000/svg" width="200" height="200" viewBox="0 0 200 200">
  <rect width="200" height="200" fill="white"/>
  
  <!-- 简单的QR码模拟 -->
  <rect x="20" y="20" width="160" height="160" fill="white" stroke="black" stroke-width="1"/>
  
  <!-- QR码内部黑色方块模拟 -->
  <!-- 左上角定位图案 -->
  <rect x="30" y="30" width="30" height="30" fill="black"/>
  <rect x="35" y="35" width="20" height="20" fill="white"/>
  <rect x="40" y="40" width="10" height="10" fill="black"/>
  
  <!-- 右上角定位图案 -->
  <rect x="140" y="30" width="30" height="30" fill="black"/>
  <rect x="145" y="35" width="20" height="20" fill="white"/>
  <rect x="150" y="40" width="10" height="10" fill="black"/>
  
  <!-- 左下角定位图案 -->
  <rect x="30" y="140" width="30" height="30" fill="black"/>
  <rect x="35" y="145" width="20" height="20" fill="white"/>
  <rect x="40" y="150" width="10" height="10" fill="black"/>
  
  <!-- 随机黑色方块模拟QR码数据 -->
  <rect x="80" y="30" width="5" height="5" fill="black"/>
  <rect x="90" y="30" width="5" height="5" fill="black"/>
  <rect x="100" y="35" width="5" height="5" fill="black"/>
  <rect x="70" y="40" width="5" height="5" fill="black"/>
  <rect x="85" y="45" width="5" height="5" fill="black"/>
  <rect x="95" y="50" width="5" height="5" fill="black"/>
  <rect x="105" y="55" width="5" height="5" fill="black"/>
  <rect x="120" y="60" width="5" height="5" fill="black"/>
  <rect x="130" y="65" width="5" height="5" fill="black"/>
  <rect x="70" y="70" width="5" height="5" fill="black"/>
  <rect x="80" y="75" width="5" height="5" fill="black"/>
  <rect x="90" y="80" width="5" height="5" fill="black"/>
  <rect x="100" y="85" width="5" height="5" fill="black"/>
  <rect x="110" y="90" width="5" height="5" fill="black"/>
  <rect x="120" y="95" width="5" height="5" fill="black"/>
  <rect x="130" y="100" width="5" height="5" fill="black"/>
  <rect x="70" y="105" width="5" height="5" fill="black"/>
  <rect x="80" y="110" width="5" height="5" fill="black"/>
  <rect x="90" y="115" width="5" height="5" fill="black"/>
  <rect x="100" y="120" width="5" height="5" fill="black"/>
  <rect x="110" y="125" width="5" height="5" fill="black"/>
  <rect x="120" y="130" width="5" height="5" fill="black"/>
  <rect x="75" y="135" width="5" height="5" fill="black"/>
  <rect x="85" y="140" width="5" height="5" fill="black"/>
  <rect x="95" y="145" width="5" height="5" fill="black"/>
  <rect x="105" y="150" width="5" height="5" fill="black"/>
  <rect x="115" y="155" width="5" height="5" fill="black"/>
  <rect x="125" y="160" width="5" height="5" fill="black"/>
  <rect x="135" y="165" width="5" height="5" fill="black"/>
</svg> 